<?xml version="1.0" encoding="UTF-8" standalone="no"?>
<!-- Created with Inkscape (http://www.inkscape.org/) -->

<svg
   width="255.644"
   height="126.186"
   viewBox="0 0 67.639139 33.386713"
   version="1.1"
   id="svg1"
   xml:space="preserve"
   inkscape:version="1.3.2 (091e20e, 2023-11-25, custom)"
   sodipodi:docname="Gill Sans Logo Secondary.svg"
   xmlns:inkscape="http://www.inkscape.org/namespaces/inkscape"
   xmlns:sodipodi="http://sodipodi.sourceforge.net/DTD/sodipodi-0.dtd"
   xmlns="http://www.w3.org/2000/svg"
   xmlns:svg="http://www.w3.org/2000/svg"><sodipodi:namedview
     id="namedview1"
     pagecolor="#ffffff"
     bordercolor="#000000"
     borderopacity="0.25"
     inkscape:showpageshadow="2"
     inkscape:pageopacity="0.0"
     inkscape:pagecheckerboard="0"
     inkscape:deskcolor="#d1d1d1"
     inkscape:document-units="mm"
     inkscape:zoom="1"
     inkscape:cx="311.5"
     inkscape:cy="452.5"
     inkscape:window-width="2560"
     inkscape:window-height="1377"
     inkscape:window-x="1072"
     inkscape:window-y="224"
     inkscape:window-maximized="1"
     inkscape:current-layer="layer1" /><defs
     id="defs1" /><g
     inkscape:label="Layer 1"
     inkscape:groupmode="layer"
     id="layer1"><g
       id="g1"
       transform="translate(-95.597943,-107.45484)"><path
         style="fill:#356f9e;fill-opacity:1;stroke:none;stroke-width:0.333618;stroke-linecap:round;stroke-linejoin:round;stroke-dasharray:none"
         d="m 95.63115,135.62573 c 0.1289,-1.91574 0.0126,-3.92453 0.81845,-5.72188 0.26639,-0.71508 0.58253,-1.44992 0.94476,-2.09891 0.45764,-0.43147 0.65232,0.42954 1.06917,0.56143 0.54221,0.48869 0.71008,0.36691 0.38267,-0.28234 -0.22071,-1.48523 -0.18447,-3.02133 0.0428,-4.50466 -0.66379,-0.32793 -1.28263,-0.83984 -1.57321,-1.55895 -0.51095,-0.99448 -0.81311,-2.12045 -0.85027,-3.23119 0.0999,-0.66194 0.98068,-0.9006 1.55844,-0.73562 1.14047,0.32324 2.42644,0.50383 3.2741,1.41417 1.22031,-0.53722 2.45013,-1.09759 3.78135,-1.29888 0.0287,-0.47869 0.10409,-0.95234 0.19982,-1.42185 -1.35642,0.17294 -2.65917,-0.59444 -3.35929,-1.73151 -0.76509,-1.10744 -1.09896,-2.48617 -0.86709,-3.81829 0.1079,-1.02785 0.74223,-1.91875 1.37022,-2.69829 1.06201,-1.10412 2.74219,-1.1009 4.16268,-1.00505 1.05129,0.2661 1.96412,0.97335 2.62734,1.81386 0.60289,1.04889 1.02961,2.27921 0.6815,3.48921 -0.23322,1.27501 -0.97838,2.47064 -2.04067,3.21226 -0.62273,0.28455 -1.26781,0.55086 -1.94447,0.66865 -0.14944,0.4952 -0.22917,1.00914 -0.29205,1.52175 1.31907,0.34295 2.56507,0.92164 3.80181,1.4842 0.52634,-0.60066 1.16319,-1.0702 1.92092,-1.33409 0.73485,-0.32252 1.78646,-0.53266 2.38328,0.1439 0.29741,0.67964 -0.0221,1.4346 -0.0856,2.13717 -0.15632,0.99496 -0.71722,1.9012 -1.41668,2.60016 -0.29732,0.33963 -1.00799,0.33503 -0.72745,0.91638 0.1966,1.43086 -0.0643,2.86655 -0.11092,4.29184 -0.35032,0.76282 0.38269,0.0606 0.68858,-0.10892 0.37988,-0.16175 0.60646,-0.62502 0.99146,-0.68148 0.54821,0.93052 1.20013,1.92721 1.62604,2.96983 0.8575,1.77322 0.71517,3.80126 1.09136,5.69243 0.21522,0.53317 -0.57858,0.55393 -0.62856,0.0971 -0.54821,-0.87858 -1.19081,-1.69646 -1.87925,-2.46941 -0.10377,0.53099 0.17283,1.35668 -0.52797,1.57957 -0.73689,0.18362 -1.36839,-0.46053 -1.53613,-1.1327 -0.22299,-0.54652 -0.38562,-0.83893 -0.27278,-0.061 0.17807,1.22028 0.29934,2.48168 -0.0991,3.67463 -0.17631,1.19242 -1.0254,2.21382 -2.05702,2.77812 -0.57478,0.0639 -1.25232,0.14173 -1.78671,-0.10516 -0.29811,-0.40722 -0.31244,-0.94481 -0.42652,-1.42376 -0.96124,-0.32595 -1.98753,-0.44264 -2.98797,-0.25817 -0.40459,0.15943 -0.15028,0.80342 -0.20632,1.16796 0.016,0.70958 -0.83667,0.48048 -1.29143,0.46585 -0.48813,-0.0155 -0.98593,-0.0452 -1.30419,-0.47436 -0.65226,-0.6183 -0.90672,-1.52489 -1.32236,-2.29822 -0.29231,-1.16721 -0.28223,-2.39003 -0.27639,-3.58353 0.17298,-0.76127 -0.20684,-0.55148 -0.36103,0.0396 -0.27886,0.69393 -1.20718,0.89395 -1.75886,0.39064 -0.41742,0.39553 -0.59073,0.98564 -1.02099,1.35148 -0.27583,0.11204 -0.53192,-0.15588 -0.40539,-0.42393 z"
         id="path1-8-2-8" /><path
         d="m 122.366,123.08675 h 1.05731 v 7.94114 h -1.14257 v -6.17897 l -2.44431,3.06959 h -0.21032 l -2.46704,-3.06959 v 6.17897 h -1.13688 v -7.94114 h 1.06867 l 2.64325,3.26286 z m 6.66783,-0.11369 q 1.84176,0 3.06391,1.16531 1.22783,1.16531 1.22783,2.9218 0,1.75648 -1.2392,2.91042 -1.23352,1.14825 -3.11507,1.14825 -1.79627,0 -2.99569,-1.14825 -1.19373,-1.15394 -1.19373,-2.88769 0,-1.77922 1.2051,-2.94453 1.2051,-1.16531 3.04685,-1.16531 z m 0.0455,1.08005 q -1.36426,0 -2.24535,0.85266 -0.8754,0.85266 -0.8754,2.17713 0,1.28468 0.88108,2.13735 0.88109,0.85266 2.20556,0.85266 1.33016,0 2.21693,-0.86972 0.89245,-0.86971 0.89245,-2.16576 0,-1.26194 -0.89245,-2.12029 -0.88677,-0.86403 -2.18282,-0.86403 z m 9.53846,-1.08005 q 1.84175,0 3.0639,1.16531 1.22784,1.16531 1.22784,2.9218 0,1.75648 -1.2392,2.91042 -1.23352,1.14825 -3.11507,1.14825 -1.79628,0 -2.99569,-1.14825 -1.19373,-1.15394 -1.19373,-2.88769 0,-1.77922 1.2051,-2.94453 1.2051,-1.16531 3.04685,-1.16531 z m 0.0455,1.08005 q -1.36427,0 -2.24535,0.85266 -0.8754,0.85266 -0.8754,2.17713 0,1.28468 0.88108,2.13735 0.88109,0.85266 2.20556,0.85266 1.33015,0 2.21692,-0.86972 0.89246,-0.86971 0.89246,-2.16576 0,-1.26194 -0.89246,-2.12029 -0.88677,-0.86403 -2.18281,-0.86403 z m 9.93068,3.0639 h 2.666 v 3.36518 q -1.46658,0.63665 -2.91043,0.63665 -1.97249,0 -3.15485,-1.14825 -1.17668,-1.15394 -1.17668,-2.84221 0,-1.77923 1.22215,-2.96159 1.22216,-1.18236 3.06391,-1.18236 0.67076,0 1.27331,0.1478 0.60255,0.14211 1.52343,0.52865 v 1.15962 q -1.42111,-0.82424 -2.81948,-0.82424 -1.30173,0 -2.19419,0.88677 -0.89245,0.88677 -0.89245,2.17714 0,1.35289 0.89245,2.21124 0.89246,0.85834 2.29651,0.85834 0.68213,0 1.63143,-0.31264 l 0.108,-0.0341 v -1.65416 h -1.52911 z m 4.32585,-4.03026 h 1.13688 v 6.90658 h 3.57551 v 1.03456 h -4.71239 z m 5.70716,0 h 4.50207 v 1.01183 h -3.36518 v 2.42157 h 3.25149 v 1.01751 h -3.25149 v 2.46704 h 3.47318 v 1.01182 h -4.61007 z"
         id="text1-6-4-5"
         style="font-size:11.6417px;font-family:'Gill Sans MT';-inkscape-font-specification:'Gill Sans MT, Normal';text-align:center;text-anchor:middle;fill:#356f9e;stroke-width:2.36016;stroke-linecap:round;stroke-linejoin:round"
         aria-label="MOOGLE" /></g></g></svg>
