<?xml version="1.0" encoding="UTF-8" standalone="no"?>
<!-- Created with Inkscape (http://www.inkscape.org/) -->

<svg
   width="91.402"
   height="91.402"
   viewBox="0 0 24.183445 24.183447"
   version="1.1"
   id="svg1"
   xml:space="preserve"
   sodipodi:docname="wind_turbine.svg"
   inkscape:version="1.3.2 (091e20e, 2023-11-25, custom)"
   xmlns:inkscape="http://www.inkscape.org/namespaces/inkscape"
   xmlns:sodipodi="http://sodipodi.sourceforge.net/DTD/sodipodi-0.dtd"
   xmlns="http://www.w3.org/2000/svg"
   xmlns:svg="http://www.w3.org/2000/svg"><sodipodi:namedview
     id="namedview1"
     pagecolor="#ffffff"
     bordercolor="#000000"
     borderopacity="0.25"
     inkscape:showpageshadow="2"
     inkscape:pageopacity="0.0"
     inkscape:pagecheckerboard="0"
     inkscape:deskcolor="#d1d1d1"
     inkscape:document-units="mm"
     inkscape:zoom="5.6568543"
     inkscape:cx="35.178562"
     inkscape:cy="49.939416"
     inkscape:window-width="2560"
     inkscape:window-height="1476"
     inkscape:window-x="-12"
     inkscape:window-y="-12"
     inkscape:window-maximized="1"
     inkscape:current-layer="layer1" /><defs
     id="defs1" /><g
     inkscape:label="Layer 1"
     inkscape:groupmode="layer"
     id="layer1"
     transform="translate(-1.3095775,0.04568294)"><g
       id="g24"
       transform="matrix(0.96904571,0,0,0.96547602,0.27058594,0.76541656)"
       style="stroke-width:0.820618;stroke-dasharray:none;stroke:#ffffff"><path
         id="path4"
         style="opacity:1;fill:none;stroke:#ffffff;stroke-width:0.820618;stroke-linecap:round;stroke-linejoin:round;stroke-dasharray:none"
         d="m 1.4861466,23.78072 a 8.9904194,8.1833544 0 0 1 8.316619,-5.075015 8.9904194,8.1833544 0 0 1 8.3206284,5.083915" /><path
         id="path2"
         style="opacity:1;fill:none;stroke:#ffffff;stroke-width:0.820618;stroke-linecap:round;stroke-linejoin:round;stroke-dasharray:none"
         d="m 13.633121,19.488521 a 8.9904194,8.1833544 0 0 1 3.692102,-0.721906 8.9904194,8.1833544 0 0 1 8.2928,5.022729" /><path
         style="opacity:1;fill:none;stroke:#ffffff;stroke-width:0.820618;stroke-linecap:round;stroke-linejoin:round;stroke-dasharray:none"
         d="M 1.4817326,23.790526 H 25.618567"
         id="path1" /><path
         id="rect9"
         style="opacity:1;fill:none;stroke:#ffffff;stroke-width:0.820618;stroke-linecap:round;stroke-linejoin:round;stroke-dasharray:none"
         d="m 12.126056,1.362311 0.0088,0.00879 3.029728,3.029727 c 0.638279,0.6382791 0.638279,1.6659817 0,2.3042601 l -3.04545,3.0454503" /><circle
         style="opacity:1;fill:none;stroke:#ffffff;stroke-width:0.820618;stroke-linecap:round;stroke-linejoin:round;stroke-dasharray:none"
         id="path13"
         cx="18.083805"
         cy="5.5564222"
         r="1.2448601" /><path
         style="opacity:1;fill:none;stroke:#ffffff;stroke-width:0.820618;stroke-linecap:round;stroke-linejoin:round;stroke-dasharray:none"
         d="m 12.126056,1.362311 1.792447,-1.78483357"
         id="path14"
         sodipodi:nodetypes="cc" /><path
         style="opacity:1;fill:none;stroke:#ffffff;stroke-width:0.820618;stroke-linecap:round;stroke-linejoin:round;stroke-dasharray:none"
         d="m 12.119119,9.7505337 1.795989,1.8135903"
         id="path15"
         sodipodi:nodetypes="cc" /><path
         id="path16"
         style="opacity:1;fill:none;stroke:#ffffff;stroke-width:0.820618;stroke-linecap:round;stroke-linejoin:round;stroke-dasharray:none"
         d="m 22.30674,-0.41560157 -0.0088,0.0088 -3.029727,3.02972907 c -0.638279,0.638279 -1.665981,0.638278 -2.30426,0 l -3.04545,-3.04545007" /><path
         id="path17"
         style="opacity:1;fill:none;stroke:#ffffff;stroke-width:0.820618;stroke-linecap:round;stroke-linejoin:round;stroke-dasharray:none"
         d="m 24.100037,9.7505407 -0.0088,-0.0088 -3.029729,-3.0297268 c -0.638279,-0.638279 -0.638278,-1.665981 0,-2.30426 l 3.04545,-3.04545" /><path
         style="opacity:1;fill:none;stroke:#ffffff;stroke-width:0.820618;stroke-linecap:round;stroke-linejoin:round;stroke-dasharray:none"
         d="M 22.30674,-0.41560157 24.106958,1.3623039"
         id="path18"
         sodipodi:nodetypes="cc" /><path
         id="path19"
         style="opacity:1;fill:none;stroke:#ffffff;stroke-width:0.820618;stroke-linecap:round;stroke-linejoin:round;stroke-dasharray:none"
         d="m 13.915108,11.564124 0.0088,-0.0088 3.029726,-3.0297291 c 0.638279,-0.6382786 1.665981,-0.6382776 2.30426,0 l 3.045451,3.0454501" /><path
         style="opacity:1;fill:none;stroke:#ffffff;stroke-width:0.820618;stroke-linecap:round;stroke-linejoin:round;stroke-dasharray:none"
         d="M 24.100037,9.7505407 22.303344,11.571045"
         id="path20" /><path
         style="opacity:1;fill:none;stroke:#ffffff;stroke-width:0.820618;stroke-linecap:round;stroke-linejoin:round;stroke-dasharray:none"
         d="m 15.359633,10.125857 -1.868057,9.285506"
         id="path21"
         sodipodi:nodetypes="cc" /><path
         style="opacity:1;fill:none;stroke:#ffffff;stroke-width:0.820618;stroke-linecap:round;stroke-linejoin:round;stroke-dasharray:none"
         d="m 20.830228,10.114466 2.143697,10.423906"
         id="path22"
         sodipodi:nodetypes="cc" /><path
         id="path24"
         style="opacity:1;fill:none;stroke:#ffffff;stroke-width:0.820618;stroke-linecap:round;stroke-linejoin:round;stroke-dasharray:none"
         d="m 16.852846,18.777919 v -2.872768 a 1.2402344,1.2402344 0 0 1 1.240234,-1.240235 1.2402344,1.2402344 0 0 1 1.240234,1.240235 v 3.068206" /></g></g></svg>
