<?xml version="1.0" encoding="UTF-8" standalone="no"?>
<!-- Created with Inkscape (http://www.inkscape.org/) -->

<svg
   width="190.36"
   height="130.674"
   viewBox="0 0 50.366082 34.574161"
   version="1.1"
   id="svg1"
   xml:space="preserve"
   inkscape:version="1.3.2 (091e20e, 2023-11-25, custom)"
   sodipodi:docname="Gill Sans Logo Primary.svg"
   xmlns:inkscape="http://www.inkscape.org/namespaces/inkscape"
   xmlns:sodipodi="http://sodipodi.sourceforge.net/DTD/sodipodi-0.dtd"
   xmlns="http://www.w3.org/2000/svg"
   xmlns:svg="http://www.w3.org/2000/svg"><sodipodi:namedview
     id="namedview1"
     pagecolor="#ffffff"
     bordercolor="#000000"
     borderopacity="0.25"
     inkscape:showpageshadow="2"
     inkscape:pageopacity="0.0"
     inkscape:pagecheckerboard="0"
     inkscape:deskcolor="#d1d1d1"
     inkscape:document-units="mm"
     inkscape:zoom="4"
     inkscape:cx="40.875"
     inkscape:cy="104.375"
     inkscape:window-width="2560"
     inkscape:window-height="1377"
     inkscape:window-x="1072"
     inkscape:window-y="224"
     inkscape:window-maximized="1"
     inkscape:current-layer="layer1" /><defs
     id="defs1" /><g
     inkscape:label="Layer 1"
     inkscape:groupmode="layer"
     id="layer1"><g
       id="g1"
       transform="translate(-3.1110728,-3.3295942)"><path
         style="fill:#356f9e;fill-opacity:1;stroke:none;stroke-width:0.345484;stroke-linecap:round;stroke-linejoin:round;stroke-dasharray:none"
         d="m 17.106107,32.502464 c 0.133476,-1.98386 0.01302,-4.0641 0.847552,-5.92539 0.275867,-0.74051 0.603259,-1.50149 0.978363,-2.17355 0.473914,-0.44683 0.675529,0.44482 1.107201,0.58139 0.561493,0.50608 0.735339,0.37996 0.396283,-0.29238 -0.228563,-1.53806 -0.19103,-3.12879 0.04433,-4.66488 -0.687399,-0.3396 -1.328249,-0.86971 -1.629161,-1.61439 -0.529127,-1.02986 -0.84204,-2.19588 -0.880518,-3.34611 0.103474,-0.68549 1.01556,-0.93264 1.613876,-0.76179 1.181034,0.33473 2.512738,0.52175 3.390545,1.46446 1.263714,-0.55631 2.537271,-1.13663 3.915838,-1.34507 0.02969,-0.49572 0.107805,-0.98621 0.206931,-1.47242 -1.404659,0.1791 -2.753748,-0.61559 -3.478774,-1.7931 -0.792302,-1.146841 -1.138048,-2.5745906 -0.897934,-3.9540906 0.111742,-1.06441 0.768637,-1.987 1.418968,-2.79426 1.09978,-1.1434 2.839719,-1.14006 4.310731,-1.04081 1.088683,0.27557 2.033979,1.00798 2.720794,1.87838 0.624329,1.0862 1.066225,2.36028 0.705732,3.61331 -0.241507,1.3203696 -1.013176,2.5585206 -2.113249,3.3265106 -0.644878,0.29468 -1.31291,0.57045 -2.01363,0.69243 -0.154755,0.51282 -0.237321,1.04504 -0.302446,1.57589 1.365997,0.35513 2.656311,0.95442 3.937044,1.53698 0.545063,-0.62203 1.204557,-1.10826 1.989236,-1.38154 0.760986,-0.33399 1.850001,-0.55161 2.468038,0.14903 0.30801,0.7038 -0.0229,1.48562 -0.0887,2.21318 -0.16187,1.03034 -0.742717,1.96881 -1.467061,2.69263 -0.307895,0.35171 -1.043841,0.34694 -0.753318,0.94897 0.203595,1.48176 -0.06658,2.96851 -0.114876,4.44449 -0.362781,0.78995 0.3963,0.0628 0.713072,-0.11281 0.393391,-0.16751 0.628034,-0.64724 1.026729,-0.70571 0.567704,0.9636 1.242804,1.99574 1.683874,3.07546 0.888,1.83629 0.7406,3.93647 1.13018,5.89489 0.22288,0.55214 -0.59916,0.57362 -0.65092,0.10058 -0.56772,-0.90984 -1.23316,-1.7568 -1.946094,-2.55724 -0.10746,0.54987 0.178984,1.40493 -0.546745,1.63575 -0.763106,0.19015 -1.41706,-0.47691 -1.590763,-1.17299 -0.230931,-0.56596 -0.399346,-0.86877 -0.282488,-0.0632 0.18441,1.26368 0.309984,2.56995 -0.102677,3.80533 -0.18258,1.23483 -1.061871,2.29255 -2.130185,2.87691 -0.595219,0.0661 -1.296865,0.14678 -1.850261,-0.10894 -0.308714,-0.42171 -0.323545,-0.97842 -0.441685,-1.47441 -0.995437,-0.33753 -2.058226,-0.45838 -3.094255,-0.26734 -0.418976,0.16511 -0.155625,0.83199 -0.213646,1.20951 0.01662,0.73481 -0.866434,0.49756 -1.33737,0.48241 -0.505495,-0.016 -1.020996,-0.0468 -1.350571,-0.49124 -0.675461,-0.64028 -0.93898,-1.57912 -1.369393,-2.37996 -0.302709,-1.20872 -0.292272,-2.47504 -0.286219,-3.71098 0.179129,-0.78835 -0.214206,-0.5711 -0.373876,0.041 -0.288775,0.71861 -1.250116,0.92574 -1.82142,0.40453 -0.432265,0.4096 -0.611741,1.0207 -1.057304,1.39955 -0.28564,0.11607 -0.550842,-0.16142 -0.419811,-0.43901 z"
         id="path1-5" /><path
         d="M 9.8393096,3.9622336 H 10.960686 V 12.384616 H 9.748876 V 5.8311946 L 7.1564462,9.0868041 H 6.9333767 L 4.3168313,5.8311946 V 12.384616 H 3.11105 V 3.9622336 H 4.2444844 L 7.0479259,7.4228259 Z M 16.911217,3.8416555 q 1.953366,0 3.249581,1.2359258 1.302243,1.2359258 1.302243,3.0988579 0,1.8629318 -1.314301,3.0867998 -1.308273,1.217839 -3.303841,1.217839 -1.905134,0 -3.177234,-1.217839 -1.26607,-1.223868 -1.26607,-3.0626842 0,-1.8870477 1.278128,-3.1229735 1.278128,-1.2359258 3.231494,-1.2359258 z m 0.04823,1.1454922 q -1.446937,0 -2.381418,0.904336 -0.928451,0.9043359 -0.928451,2.3090711 0,1.3625329 0.93448,2.2668692 0.934481,0.904336 2.339216,0.904336 1.410764,0 2.351273,-0.922423 0.946539,-0.9224228 0.946539,-2.2970134 0,-1.3384173 -0.946539,-2.2487821 -0.940509,-0.9163938 -2.3151,-0.9163938 z"
         id="text1-65"
         style="font-size:12.3472px;font-family:'Gill Sans MT';-inkscape-font-specification:'Gill Sans MT, Normal';text-align:center;text-anchor:middle;fill:#356f9e;stroke-width:2.45662;stroke-linecap:round;stroke-linejoin:round"
         aria-label="MO" /><path
         d="m 37.946716,8.2320438 h 2.827557 v 3.5691122 q -1.555458,0.675238 -3.0868,0.675238 -2.092031,0 -3.346043,-1.217839 -1.247984,-1.223868 -1.247984,-3.0144534 0,-1.8870477 1.296215,-3.1410602 1.296215,-1.2540126 3.249581,-1.2540126 0.71141,0 1.350475,0.1567516 0.639064,0.1507227 1.615746,0.5606883 v 1.2298969 q -1.507226,-0.8741914 -2.990337,-0.8741914 -1.38062,0 -2.327158,0.9405094 -0.946538,0.9405094 -0.946538,2.3090712 0,1.4348797 0.946538,2.3452442 0.946538,0.910365 2.435678,0.910365 0.723469,0 1.730296,-0.33159 l 0.11455,-0.03617 V 9.3051892 h -1.621776 z m 4.587997,-4.2744946 h 1.205782 V 11.28267 h 3.792182 v 1.097261 h -4.997964 z m 6.053023,0 h 4.774894 v 1.0731453 h -3.569113 v 2.5683141 h 3.448535 v 1.0791743 h -3.448535 v 2.6165451 h 3.683662 v 1.073146 h -4.889443 z"
         id="text2-0"
         style="font-size:12.3472px;font-family:'Gill Sans MT';-inkscape-font-specification:'Gill Sans MT, Normal';text-align:center;text-anchor:middle;fill:#356f9e;stroke-width:2.71571;stroke-linecap:round;stroke-linejoin:round"
         aria-label="GLE" /></g></g></svg>
