<svg width="134" height="67" viewBox="0 0 134 67" fill="none" xmlns="http://www.w3.org/2000/svg">
<path d="M0.0657109 55.8095C0.321075 52.0142 0.0906745 48.0346 1.68715 44.4739C2.21489 43.0572 2.84121 41.6014 3.55882 40.3157C4.46545 39.4609 4.85113 41.1666 5.67695 41.4279C6.75113 42.3961 7.08369 42.1548 6.43506 40.8686C5.99781 37.9262 6.0696 34.883 6.51985 31.9444C5.20481 31.2947 3.97882 30.2806 3.40315 28.8559C2.39091 26.8858 1.79231 24.6551 1.71869 22.4546C1.9166 21.1433 3.66151 20.6705 4.80611 20.9973C7.0655 21.6377 9.61314 21.9954 11.2924 23.7989C13.71 22.7346 16.1464 21.6245 18.7837 21.2257C18.8405 20.2774 18.9899 19.339 19.1796 18.4089C16.4923 18.7515 13.9115 17.2312 12.5245 14.9786C11.0087 12.7846 10.3473 10.0532 10.8067 7.41414C11.0204 5.37786 12.2771 3.6129 13.5212 2.06855C15.6252 -0.118824 18.9538 -0.112446 21.7679 0.0774423C23.8506 0.604614 25.659 2.00575 26.9729 3.67088C28.1673 5.74884 29.0127 8.18624 28.3231 10.5834C27.861 13.1093 26.3848 15.478 24.2803 16.9472C23.0466 17.5109 21.7686 18.0385 20.4281 18.2718C20.132 19.2529 19.9741 20.2711 19.8495 21.2866C22.4627 21.966 24.9312 23.1125 27.3813 24.2269C28.424 23.037 29.6857 22.1068 31.1868 21.584C32.6426 20.945 34.726 20.5287 35.9084 21.8691C36.4976 23.2155 35.8646 24.7112 35.7388 26.103C35.4291 28.0741 34.3179 29.8695 32.9322 31.2542C32.3432 31.927 30.9353 31.9179 31.491 33.0696C31.8805 35.9043 31.3636 38.7486 31.2713 41.5722C30.5773 43.0834 32.0294 41.6923 32.6354 41.3564C33.388 41.036 33.8369 40.1182 34.5996 40.0064C35.6857 41.8498 36.9772 43.8244 37.821 45.8899C39.5198 49.4028 39.2378 53.4206 39.9831 57.1672C40.4094 58.2235 38.8368 58.2646 38.7378 57.3596C37.6518 55.619 36.3787 53.9987 35.0148 52.4674C34.8093 53.5193 35.3572 55.1551 33.9689 55.5967C32.509 55.9605 31.2579 54.6843 30.9256 53.3527C30.4839 52.27 30.1617 51.6907 30.3852 53.2318C30.738 55.6493 30.9783 58.1483 30.1889 60.5117C29.8396 62.874 28.1575 64.8975 26.1137 66.0154C24.975 66.142 23.6328 66.2962 22.5741 65.8071C21.9835 65.0003 21.9551 63.9353 21.7291 62.9865C19.8248 62.3407 17.7916 62.1096 15.8096 62.475C15.0081 62.7909 15.5119 64.0666 15.4009 64.7888C15.4326 66.1946 13.7433 65.7407 12.8424 65.7117C11.8754 65.681 10.8892 65.6222 10.2587 64.772C8.9665 63.5471 8.46238 61.751 7.63895 60.219C7.05985 57.9066 7.07982 55.4841 7.09139 53.1196C7.43409 51.6115 6.68162 52.0271 6.37616 53.1981C5.8237 54.5728 3.98461 54.9691 2.89168 53.972C2.06472 54.7556 1.72138 55.9246 0.868992 56.6494C0.322545 56.8714 -0.184958 56.3405 0.0657109 55.8095Z" fill="#356F9E"/>
<path d="M53.0306 30.9684H55.1253V46.7006H52.8617V34.4594L48.0193 40.5406H47.6026L42.7152 34.4594V46.7006H40.4629V30.9684H42.58L47.8166 37.4325L53.0306 30.9684ZM66.2403 30.7432C68.6728 30.7432 70.6961 31.5127 72.3102 33.0518C73.9319 34.5908 74.7427 36.5203 74.7427 38.8402C74.7427 41.16 73.9243 43.082 72.2877 44.606C70.6585 46.1225 68.6014 46.8808 66.1164 46.8808C63.744 46.8808 61.7658 46.1225 60.1817 44.606C58.605 43.082 57.8168 41.175 57.8168 38.8852C57.8168 36.5353 58.6126 34.5908 60.2042 33.0518C61.7958 31.5127 63.8078 30.7432 66.2403 30.7432ZM66.3304 32.8829C64.5286 32.8829 63.0459 33.4459 61.8822 34.5721C60.726 35.6982 60.1479 37.1359 60.1479 38.8852C60.1479 40.5819 60.7298 41.9933 61.8934 43.1195C63.0571 44.2456 64.5136 44.8087 66.2629 44.8087C68.0197 44.8087 69.4836 44.2344 70.6548 43.0857C71.8335 41.937 72.4229 40.5068 72.4229 38.7951C72.4229 37.1284 71.8335 35.7282 70.6548 34.5946C69.4836 33.4534 68.0422 32.8829 66.3304 32.8829ZM85.2271 30.7432C87.6596 30.7432 89.6829 31.5127 91.297 33.0518C92.9187 34.5908 93.7295 36.5203 93.7295 38.8402C93.7295 41.16 92.9112 43.082 91.2745 44.606C89.6454 46.1225 87.5883 46.8808 85.1033 46.8808C82.7308 46.8808 80.7526 46.1225 79.1685 44.606C77.5919 43.082 76.8036 41.175 76.8036 38.8852C76.8036 36.5353 77.5994 34.5908 79.191 33.0518C80.7826 31.5127 82.7946 30.7432 85.2271 30.7432ZM85.3172 32.8829C83.5154 32.8829 82.0327 33.4459 80.869 34.5721C79.7128 35.6982 79.1347 37.1359 79.1347 38.8852C79.1347 40.5819 79.7166 41.9933 80.8802 43.1195C82.0439 44.2456 83.5004 44.8087 85.2497 44.8087C87.0065 44.8087 88.4704 44.2344 89.6416 43.0857C90.8203 41.937 91.4097 40.5068 91.4097 38.7951C91.4097 37.1284 90.8203 35.7282 89.6416 34.5946C88.4704 33.4534 87.029 32.8829 85.3172 32.8829ZM104.991 38.9528H110.273V45.6195C108.336 46.4604 106.414 46.8808 104.507 46.8808C101.902 46.8808 99.8182 46.1225 98.2566 44.606C96.7025 43.082 95.9255 41.205 95.9255 38.9753C95.9255 36.6254 96.7326 34.6696 98.3467 33.1081C99.9609 31.5465 101.984 30.7657 104.417 30.7657C105.303 30.7657 106.143 30.8633 106.939 31.0585C107.735 31.2462 108.741 31.5953 109.957 32.1058V34.4031C108.08 33.3145 106.218 32.7702 104.372 32.7702C102.652 32.7702 101.203 33.3558 100.025 34.527C98.846 35.6982 98.2566 37.1359 98.2566 38.8402C98.2566 40.627 98.846 42.0872 100.025 43.2208C101.203 44.3545 102.72 44.9213 104.574 44.9213C105.475 44.9213 106.553 44.7148 107.806 44.3019L108.02 44.2344V40.9573H104.991V38.9528ZM113.561 30.9684H115.813V44.651H122.897V46.7006H113.561V30.9684ZM124.867 30.9684H133.786V32.9729H127.12V37.7703H133.561V39.7861H127.12V44.6736H134V46.6781H124.867V30.9684Z" fill="#356F9E"/>
</svg>
