<svg width="192" height="131" viewBox="0 0 192 131" fill="none" xmlns="http://www.w3.org/2000/svg">
<path d="M53.7152 110.26C54.2197 102.762 53.7644 94.8993 56.9186 87.8645C57.9612 85.0657 59.1986 82.1896 60.6163 79.6495C62.4075 77.9607 63.1695 81.3307 64.801 81.8469C66.9232 83.7596 67.5803 83.2829 66.2988 80.7418C65.4349 74.9287 65.5768 68.9165 66.4663 63.1108C63.8683 61.8272 61.4462 59.8237 60.3089 57.0091C58.309 53.1167 57.1264 48.7097 56.9809 44.3624C57.372 41.7716 60.8193 40.8375 63.0806 41.4832C67.5444 42.7483 72.5776 43.4552 75.8953 47.0182C80.6715 44.9156 85.485 42.7223 90.6953 41.9345C90.8075 40.0609 91.1028 38.207 91.4774 36.3694C86.1685 37.0463 81.0695 34.0428 78.3293 29.5923C75.3348 25.2578 74.028 19.8616 74.9355 14.6477C75.3578 10.6248 77.8406 7.13781 80.2985 4.08675C84.4552 -0.234759 91.0313 -0.222136 96.5911 0.152982C100.706 1.19451 104.279 3.96267 106.874 7.25237C109.234 11.3577 110.904 16.1731 109.542 20.909C108.629 25.8993 105.712 30.579 101.555 33.4816C99.1173 34.5954 96.5925 35.6376 93.9441 36.0987C93.3592 38.0369 93.0471 40.0484 92.801 42.0548C97.9638 43.397 102.841 45.662 107.681 47.8638C109.741 45.5129 112.234 43.6752 115.199 42.6423C118.076 41.38 122.192 40.5575 124.528 43.2055C125.692 45.8656 124.441 48.8205 124.192 51.5703C123.58 55.4645 121.385 59.0115 118.647 61.7472C117.484 63.0765 114.702 63.0585 115.8 65.3338C116.57 70.9342 115.549 76.5534 115.366 82.1319C113.995 85.1175 116.864 82.3693 118.061 81.7055C119.548 81.0724 120.435 79.2593 121.942 79.0383C124.087 82.6802 126.639 86.5813 128.306 90.6621C131.662 97.6024 131.105 105.54 132.578 112.942C133.42 115.029 130.313 115.11 130.117 113.322C127.972 109.883 125.457 106.682 122.762 103.657C122.356 105.735 123.439 108.967 120.696 109.839C117.811 110.558 115.34 108.037 114.683 105.406C113.81 103.267 113.174 102.122 113.616 105.167C114.313 109.943 114.787 114.88 113.228 119.549C112.537 124.217 109.214 128.214 105.176 130.423C102.927 130.673 100.275 130.978 98.1833 130.011C97.0165 128.417 96.9605 126.313 96.514 124.439C92.7517 123.163 88.7349 122.706 84.8192 123.428C83.2356 124.052 84.231 126.573 84.0117 127.999C84.0745 130.777 80.737 129.88 78.957 129.823C77.0465 129.762 75.0982 129.646 73.8525 127.966C71.2996 125.546 70.3036 121.998 68.6769 118.971C67.5328 114.403 67.5722 109.616 67.5951 104.945C68.2721 101.966 66.7855 102.787 66.182 105.1C65.0906 107.816 61.4572 108.599 59.2979 106.629C57.6642 108.177 56.9858 110.487 55.3018 111.919C54.2222 112.357 53.22 111.309 53.7152 110.26Z" fill="#356F9E"/>
<path d="M26.25 2.39127H30.4882V34.2239H25.9082V9.45506L16.11 21.7597H15.2669L5.3776 9.45506V34.2239H0.820312V2.39127H5.10416L15.6998 15.4707L26.25 2.39127ZM52.9784 1.93555C57.9003 1.93555 61.9943 3.49262 65.2603 6.60676C68.5415 9.72091 70.1822 13.625 70.1822 18.319C70.1822 23.013 68.5264 26.9019 65.2147 29.9856C61.9183 33.0542 57.756 34.5885 52.7278 34.5885C47.9274 34.5885 43.9246 33.0542 40.7193 29.9856C37.5292 26.9019 35.9342 23.0434 35.9342 18.4101C35.9342 13.6554 37.5444 9.72091 40.7649 6.60676C43.9854 3.49262 48.0566 1.93555 52.9784 1.93555ZM53.1607 6.26497C49.5149 6.26497 46.5147 7.40429 44.1601 9.68293C41.8207 11.9616 40.651 14.8706 40.651 18.4101C40.651 21.8433 41.8283 24.6992 44.1829 26.9778C46.5375 29.2565 49.4845 30.3958 53.024 30.3958C56.5787 30.3958 59.5409 29.2337 61.9107 26.9095C64.2957 24.5852 65.4882 21.6914 65.4882 18.2278C65.4882 14.8554 64.2957 12.0223 61.9107 9.7285C59.5409 7.41948 56.6243 6.26497 53.1607 6.26497Z" fill="#356F9E"/>
<path d="M132.483 18.5286H143.17V32.0182C139.25 33.7196 135.361 34.5703 131.503 34.5703C126.232 34.5703 122.016 33.036 118.856 29.9674C115.712 26.8836 114.14 23.0859 114.14 18.5742C114.14 13.8194 115.773 9.86218 119.039 6.70247C122.305 3.54275 126.399 1.96289 131.321 1.96289C133.113 1.96289 134.815 2.16037 136.425 2.55534C138.035 2.93511 140.071 3.64149 142.532 4.67447V9.3229C138.734 7.12022 134.966 6.01887 131.229 6.01887C127.751 6.01887 124.819 7.20377 122.434 9.57355C120.049 11.9433 118.856 14.8524 118.856 18.3008C118.856 21.9162 120.049 24.8708 122.434 27.1647C124.819 29.4585 127.887 30.6054 131.64 30.6054C133.463 30.6054 135.642 30.1877 138.179 29.3522L138.612 29.2155V22.5846H132.483V18.5286ZM149.823 2.37305H154.38V30.0585H168.713V34.2057H149.823V2.37305ZM172.701 2.37305H190.748V6.42903H177.258V16.136H190.292V20.2148H177.258V30.1041H191.181V34.1601H172.701V2.37305Z" fill="#356F9E"/>
</svg>
